<?xml version="1.0" encoding="UTF-8" standalone="no"?>
<!-- Created with Inkscape (http://www.inkscape.org/) -->

<svg
   xmlns:dc="http://purl.org/dc/elements/1.1/"
   xmlns:cc="http://creativecommons.org/ns#"
   xmlns:rdf="http://www.w3.org/1999/02/22-rdf-syntax-ns#"
   xmlns:svg="http://www.w3.org/2000/svg"
   xmlns="http://www.w3.org/2000/svg"
   xmlns:sodipodi="http://sodipodi.sourceforge.net/DTD/sodipodi-0.dtd"
   xmlns:inkscape="http://www.inkscape.org/namespaces/inkscape"
   width="744.09448819"
   height="1052.3622047"
   id="svg2"
   version="1.1"
   inkscape:version="0.48.2 r9819"
   sodipodi:docname="afh-icons.svg">
  <defs
     id="defs4" />
  <sodipodi:namedview
     id="base"
     pagecolor="#ffffff"
     bordercolor="#666666"
     borderopacity="1.0"
     inkscape:pageopacity="0.0"
     inkscape:pageshadow="2"
     inkscape:zoom="1.9334951"
     inkscape:cx="136.57649"
     inkscape:cy="453.81918"
     inkscape:document-units="px"
     inkscape:current-layer="layer1"
     showgrid="false"
     showguides="true"
     inkscape:guide-bbox="true"
     inkscape:window-width="1656"
     inkscape:window-height="741"
     inkscape:window-x="0"
     inkscape:window-y="33"
     inkscape:window-maximized="1"
     inkscape:snap-to-guides="false">
    <sodipodi:guide
       orientation="0,1"
       position="226.02163,500.02551"
       id="guide3757" />
    <sodipodi:guide
       orientation="1,0"
       position="250.01276,570.23111"
       id="guide3759" />
    <sodipodi:guide
       orientation="1,0"
       position="350.01786,548.00776"
       id="guide3761" />
    <sodipodi:guide
       orientation="0,1"
       position="241.17392,575.02934"
       id="guide3763" />
    <sodipodi:guide
       orientation="0,1"
       position="282.5,420"
       id="guide3765" />
    <sodipodi:guide
       orientation="0,1"
       position="299.4577,350.14312"
       id="guide3798" />
  </sodipodi:namedview>
  <metadata
     id="metadata7">
    <rdf:RDF>
      <cc:Work
         rdf:about="">
        <dc:format>image/svg+xml</dc:format>
        <dc:type
           rdf:resource="http://purl.org/dc/dcmitype/StillImage" />
        <dc:title></dc:title>
      </cc:Work>
    </rdf:RDF>
  </metadata>
  <g
     inkscape:label="Layer 1"
     inkscape:groupmode="layer"
     id="layer1">
    <rect
       style="fill:#999999;fill-opacity:1;stroke:#999999;stroke-width:2;stroke-linecap:round;stroke-linejoin:round;stroke-miterlimit:4;stroke-opacity:1;stroke-dasharray:none"
       id="rect3804"
       width="33.617878"
       height="14.481546"
       x="282.5"
       y="640.36218"
       ry="4.0217576" />
    <rect
       style="fill:#999999;fill-opacity:1;stroke:#999999;stroke-width:0.97102237"
       id="rect2985"
       width="52.565994"
       height="9.6602716"
       x="297.46637"
       y="542.69092"
       ry="3.9052165" />
    <path
       style="fill:none;stroke:#999999;stroke-width:10.62216663;stroke-linecap:round;stroke-linejoin:round;stroke-miterlimit:4;stroke-opacity:1;stroke-dasharray:none"
       d="m 257.79014,484.59686 29.78001,29.78001 -29.78001,33.00459"
       id="path2987"
       inkscape:connector-curvature="0"
       sodipodi:nodetypes="ccc" />
    <path
       sodipodi:type="arc"
       style="fill:#999999;fill-opacity:1;stroke:#999999;stroke-width:10;stroke-linecap:round;stroke-linejoin:round;stroke-miterlimit:4;stroke-opacity:1;stroke-dasharray:none"
       id="path3786"
       sodipodi:cx="292.67856"
       sodipodi:cy="583.25507"
       sodipodi:rx="23.035715"
       sodipodi:ry="16.25"
       d="m 315.71427,583.25507 a 23.035715,16.25 0 1 1 -46.07143,0 23.035715,16.25 0 1 1 46.07143,0 z"
       transform="matrix(1.2788981,0,0,1.2788981,-77.768227,-156.01668)"
       inkscape:export-filename="/home/ahart/Development/git/andrewfhart.github.com/images/afh-icon-consultant.png"
       inkscape:export-xdpi="198.3"
       inkscape:export-ydpi="198.3" />
    <path
       style="fill:#999999;fill-opacity:1;stroke:#999999"
       d="m 252.08156,620.83941 c 21.01047,-7.308 19.83547,-20.30619 19.83547,-20.30619 l 24.39244,8.78746 c 0,0 -28.68211,18.15926 -44.22791,11.51873 z"
       id="path3788"
       inkscape:connector-curvature="0"
       sodipodi:nodetypes="cccc"
       inkscape:export-filename="/home/ahart/Development/git/andrewfhart.github.com/images/afh-icon-consultant.png"
       inkscape:export-xdpi="198.3"
       inkscape:export-ydpi="198.3" />
    <path
       style="fill:#999999;fill-opacity:1;stroke:#ffffff;stroke-width:3;stroke-miterlimit:4;stroke-opacity:1;stroke-dasharray:none"
       d="m 316.67722,588.77376 c -12.6228,0 -22.8467,7.22263 -22.8467,16.12708 0,8.90446 10.2239,16.12709 22.8467,16.12709 0.70515,0 1.40167,-0.0554 2.09055,-0.0995 5.51602,2.81386 19.90281,8.53769 29.9571,4.24289 -16.3001,-5.66961 -11.48943,-13.09878 -11.48943,-13.09878 l -0.36962,0.59325 c 1.786,-2.29763 2.65809,-4.95964 2.65809,-7.7649 0,-8.90446 -10.22389,-16.12709 -22.84669,-16.12709 z"
       id="path3790"
       inkscape:connector-curvature="0"
       sodipodi:nodetypes="cssccccssc"
       inkscape:export-filename="/home/ahart/Development/git/andrewfhart.github.com/images/afh-icon-consultant.png"
       inkscape:export-xdpi="198.3"
       inkscape:export-ydpi="198.3" />
    <rect
       style="fill:#999999;fill-opacity:1;stroke:#999999"
       id="rect3800"
       width="76.152817"
       height="47.065029"
       x="258.98376"
       y="648.63739"
       ry="4.0217576" />
    <path
       sodipodi:type="arc"
       style="fill:#999999;fill-opacity:1;stroke:#ffffff;stroke-width:3;stroke-linecap:round;stroke-linejoin:round;stroke-miterlimit:4;stroke-opacity:1;stroke-dasharray:none"
       id="path3802"
       sodipodi:cx="275.6666"
       sodipodi:cy="659.29163"
       sodipodi:rx="14.481546"
       sodipodi:ry="14.481546"
       d="m 290.14814,659.29163 a 14.481546,14.481546 0 1 1 -28.96309,0 14.481546,14.481546 0 1 1 28.96309,0 z"
       transform="translate(22.866564,12.792903)" />
    <path
       style="fill:#999999;fill-opacity:1;stroke:#999999"
       d="m 153.15625,556.34375 c -21.21898,0 -38.40625,11.96406 -38.40625,26.71875 0,8.39632 5.57009,15.88363 14.28125,20.78125 -1.70797,4.44138 -6.32565,10.80212 -18.84375,15.15625 13.58684,6.98524 33.20348,-9.36038 41.9375,-9.25 -1.16104,-2.05697 -1.8125,-4.29994 -1.8125,-6.65625 0,-9.79595 11.05396,-17.75 24.6875,-17.75 5.89311,0 11.28687,1.49283 15.53125,3.96875 0.68796,-2.00064 1.0625,-4.10278 1.0625,-6.25 0,-14.75469 -17.21854,-26.71875 -38.4375,-26.71875 z"
       id="path3360"
       inkscape:connector-curvature="0"
       sodipodi:nodetypes="sscccsscss"
       inkscape:export-filename="/home/ahart/Development/git/andrewfhart.github.com/images/afh-icon-consultant.png"
       inkscape:export-xdpi="198.3"
       inkscape:export-ydpi="198.3" />
    <path
       inkscape:export-ydpi="198.3"
       inkscape:export-xdpi="198.3"
       inkscape:export-filename="/home/ahart/Development/git/andrewfhart.github.com/images/afh-icon-consultant.png"
       sodipodi:nodetypes="cssccccssc"
       inkscape:connector-curvature="0"
       id="path3362"
       d="m 175.36894,587.99099 c -11.75166,0 -21.98175,7.13014 -21.98175,15.92058 0,8.79045 10.23009,15.9206 21.98175,15.9206 0.65648,0 1.30493,-0.0547 1.94627,-0.0982 5.13535,2.77783 18.52924,8.42838 27.88966,4.18857 -15.17517,-5.59702 -10.6965,-12.93106 -10.6965,-12.93106 l -0.34411,0.58565 c 1.66273,-2.26821 2.47464,-4.89613 2.47464,-7.66548 0,-8.79045 -9.5183,-15.92059 -21.26996,-15.92059 z"
       style="fill:#999999;fill-opacity:1;stroke:none" />
  </g>
</svg>
